<?xml version="1.0" standalone="no"?><svg xmlns="http://www.w3.org/2000/svg" viewBox="0 0 1440 320"><path fill="#e7cb8f" fill-opacity="1" d="M0,32L16,58.7C32,85,64,139,96,170.7C128,203,160,213,192,208C224,203,256,181,288,149.3C320,117,352,75,384,69.3C416,64,448,96,480,128C512,160,544,192,576,208C608,224,640,224,672,208C704,192,736,160,768,170.7C800,181,832,235,864,266.7C896,299,928,309,960,277.3C992,245,1024,171,1056,117.3C1088,64,1120,32,1152,48C1184,64,1216,128,1248,170.7C1280,213,1312,235,1344,234.7C1376,235,1408,213,1424,202.7L1440,192L1440,0L1424,0C1408,0,1376,0,1344,0C1312,0,1280,0,1248,0C1216,0,1184,0,1152,0C1120,0,1088,0,1056,0C1024,0,992,0,960,0C928,0,896,0,864,0C832,0,800,0,768,0C736,0,704,0,672,0C640,0,608,0,576,0C544,0,512,0,480,0C448,0,416,0,384,0C352,0,320,0,288,0C256,0,224,0,192,0C160,0,128,0,96,0C64,0,32,0,16,0L0,0Z"></path></svg>